<?xml version="1.0" standalone="no"?><!DOCTYPE svg PUBLIC "-//W3C//DTD SVG 1.1//EN" "http://www.w3.org/Graphics/SVG/1.1/DTD/svg11.dtd"><svg t="1561452583809" class="icon" viewBox="0 0 1024 1024" version="1.1" xmlns="http://www.w3.org/2000/svg" p-id="6925" xmlns:xlink="http://www.w3.org/1999/xlink" width="200" height="200"><defs><style type="text/css"></style></defs><path d="M819.2 389.632h-62.464V307.2a244.736 244.736 0 0 0-489.472 0v82.432H204.8a60.928 60.928 0 0 0-59.392 61.44v448A60.928 60.928 0 0 0 204.8 960h614.4a60.928 60.928 0 0 0 60.928-60.928V451.072A60.928 60.928 0 0 0 819.2 389.632zM328.704 307.2a183.296 183.296 0 0 1 367.104 0v82.432H328.704zM819.2 899.072H204.8V451.072h614.4v448z" fill="#A6B3C9" p-id="6926"></path><path d="M512 786.944a30.72 30.72 0 0 0 30.72-30.72v-162.816a30.72 30.72 0 0 0-61.44 0v162.816a30.72 30.72 0 0 0 30.72 30.72z" fill="#A6B3C9" p-id="6927"></path></svg>