<?xml version="1.0" standalone="no"?><!DOCTYPE svg PUBLIC "-//W3C//DTD SVG 1.1//EN" "http://www.w3.org/Graphics/SVG/1.1/DTD/svg11.dtd"><svg t="1561452588218" class="icon" viewBox="0 0 1024 1024" version="1.1" xmlns="http://www.w3.org/2000/svg" p-id="7037" xmlns:xlink="http://www.w3.org/1999/xlink" width="200" height="200"><defs><style type="text/css"></style></defs><path d="M665.593319 600.549876a318.962125 318.962125 0 1 0-303.602794 0 420.333715 420.333715 0 0 0-267.764352 391.662963 31.742619 31.742619 0 0 0 31.742619 31.742619 35.838441 35.838441 0 0 0 37.374375-31.742619v-15.359332A350.192767 350.192767 0 0 1 512 639.460183a358.38441 358.38441 0 0 0 153.593319-38.910307z m33.79053 51.197773a33.278552 33.278552 0 0 0 9.215599 46.077996 340.46519 340.46519 0 0 1 153.593319 278.515884v11.775488a33.79053 33.79053 0 0 0 0 10.751532 31.742619 31.742619 0 0 0 32.766574 24.574931 36.350419 36.350419 0 0 0 36.350419-31.742619 419.821738 419.821738 0 0 0-187.383849-349.680789 33.278552 33.278552 0 0 0-46.077995 9.727577zM270.346512 319.474103A241.653488 241.653488 0 1 1 512 563.175502a241.653488 241.653488 0 0 1-241.653488-243.701399z" fill="#A6B3C9" p-id="7038"></path></svg>